<svg height="64" viewBox="0 0 32 32" width="64" xmlns="http://www.w3.org/2000/svg"><path d="m28.25 2c0-.69-.56-1.25-1.25-1.25h-19.8c-.028-.001-.061-.001-.093-.001-1.817 0-3.297 1.443-3.357 3.246v.005 24.389c.114 1.606 1.445 2.867 3.07 2.867.063 0 .126-.002.188-.006h-.009 20c.69 0 1.25-.56 1.25-1.25s-.56-1.25-1.25-1.25h-19.8c-.024.002-.051.004-.079.004-.441 0-.807-.325-.871-.749l-.001-.005v-1.223c0-.09.266-.361.746-.361l20.004.057h.001c.515 0 .956-.311 1.148-.756l.003-.008.007-.034c.056-.132.089-.286.092-.447v-.001-.002-.002zm-2.5 21.969-14.5-.041v-20.678h14.5zm-19.5.031v-20c.064-.429.43-.754.871-.754.028 0 .055.001.082.004h-.003 1.55v20.671l-1.75-.005c-.267.002-.525.033-.774.089zm7.75-15.75h9c.69 0 1.25-.56 1.25-1.25s-.56-1.25-1.25-1.25h-9c-.69 0-1.25.56-1.25 1.25s.56 1.25 1.25 1.25zm9 1.5h-9c-.69 0-1.25.56-1.25 1.25s.56 1.25 1.25 1.25h9c.69 0 1.25-.56 1.25-1.25s-.56-1.25-1.25-1.25z"/></svg>