<svg height="64" viewBox="0 0 512 512" width="64" xmlns="http://www.w3.org/2000/svg"><path d="m152.454 446.586h281.238v65.414h-281.238z"/><path d="m209.138 277.882-37.896 139.178h241.336s8.442-121.141 19.004-243.569c6.908-80.147-61.224-160.438-157.07-149.051-6.084.721-11.855 1.957-17.476 3.428l-75.066-27.292c-3.624-1.318-7.691-.329-10.305 2.502-2.615 2.832-3.285 6.949-1.689 10.46l23.39 51.362c-28.522 27.498-46.601 62.202-58.166 83.029-15.834 28.496-54.646 106.542-54.646 106.542-4.89 9.533-1.544 21.218 7.639 26.737l45.452 27.271c10.563 6.341 23.875 5.848 33.953-1.266zm4.303-137.458c11.273 0 20.415 9.132 20.415 20.404 0 11.263-9.142 20.405-20.415 20.405-11.263 0-20.405-9.142-20.405-20.405 0-11.272 9.142-20.404 20.405-20.404z"/></svg>